<svg width="12" height="12" viewBox="0 0 12 12" fill="none" xmlns="http://www.w3.org/2000/svg">
<path d="M11.1596 1.73294C11.2552 1.64074 11.3314 1.53043 11.3839 1.40845C11.4363 1.28648 11.464 1.15527 11.4652 1.02249C11.4664 0.889713 11.4412 0.758022 11.3909 0.635102C11.3407 0.512183 11.2665 0.400496 11.1727 0.30656C11.0788 0.212623 10.9672 0.138318 10.8443 0.0879789C10.7215 0.03764 10.5898 0.0122764 10.457 0.0133672C10.3242 0.014458 10.193 0.0419816 10.071 0.0943322C9.94895 0.146683 9.83857 0.222812 9.74628 0.318278L5.73828 4.32494L1.73161 0.318278C1.64006 0.220029 1.52966 0.141226 1.407 0.08657C1.28433 0.031914 1.15191 0.00252467 1.01764 0.000155626C0.88337 -0.00221342 0.749999 0.0224864 0.625481 0.0727811C0.500964 0.123076 0.387852 0.197935 0.292894 0.292894C0.197935 0.387852 0.123076 0.500963 0.0727811 0.625481C0.0224864 0.749998 -0.00221342 0.883371 0.000155626 1.01764C0.00252467 1.15191 0.031914 1.28433 0.08657 1.407C0.141226 1.52966 0.220029 1.64006 0.318278 1.73161L4.32228 5.73961L0.315611 9.74628C0.138971 9.93585 0.0428068 10.1866 0.0473778 10.4456C0.0519487 10.7047 0.156898 10.9519 0.340116 11.1351C0.523333 11.3183 0.770513 11.4233 1.02958 11.4278C1.28865 11.4324 1.53938 11.3363 1.72894 11.1596L5.73828 7.15295L9.74495 11.1609C9.93451 11.3376 10.1852 11.4338 10.4443 11.4292C10.7034 11.4246 10.9506 11.3197 11.1338 11.1364C11.317 10.9532 11.4219 10.706 11.4265 10.447C11.4311 10.1879 11.3349 9.93718 11.1583 9.74761L7.15428 5.73961L11.1596 1.73294Z" fill="black"/>
</svg>
