<svg width="32" height="32" viewBox="0 0 32 32" fill="none" xmlns="http://www.w3.org/2000/svg">
<path d="M16 6.66667C15.4696 6.66667 14.9609 6.87738 14.5858 7.25245C14.2107 7.62753 14 8.13623 14 8.66667C14 9.1971 14.2107 9.70581 14.5858 10.0809C14.9609 10.456 15.4696 10.6667 16 10.6667C16.5304 10.6667 17.0391 10.456 17.4142 10.0809C17.7893 9.70581 18 9.1971 18 8.66667C18 8.13623 17.7893 7.62753 17.4142 7.25245C17.0391 6.87738 16.5304 6.66667 16 6.66667ZM11.3333 8.66667C11.3333 8.05383 11.454 7.447 11.6886 6.88081C11.9231 6.31462 12.2668 5.80017 12.7002 5.36683C13.1335 4.93349 13.648 4.58975 14.2141 4.35523C14.7803 4.12071 15.3872 4 16 4C16.6128 4 17.2197 4.12071 17.7859 4.35523C18.352 4.58975 18.8665 4.93349 19.2998 5.36683C19.7332 5.80017 20.0769 6.31462 20.3114 6.88081C20.546 7.447 20.6667 8.05383 20.6667 8.66667C20.6667 9.90434 20.175 11.0913 19.2998 11.9665C18.4247 12.8417 17.2377 13.3333 16 13.3333C14.7623 13.3333 13.5753 12.8417 12.7002 11.9665C11.825 11.0913 11.3333 9.90434 11.3333 8.66667ZM6.66666 10.6667C6.31304 10.6667 5.9739 10.8071 5.72385 11.0572C5.47381 11.3072 5.33333 11.6464 5.33333 12C5.33333 12.3536 5.47381 12.6928 5.72385 12.9428C5.9739 13.1929 6.31304 13.3333 6.66666 13.3333C7.02029 13.3333 7.35942 13.1929 7.60947 12.9428C7.85952 12.6928 8 12.3536 8 12C8 11.6464 7.85952 11.3072 7.60947 11.0572C7.35942 10.8071 7.02029 10.6667 6.66666 10.6667ZM2.66666 12C2.66666 10.9391 3.08809 9.92172 3.83824 9.17157C4.58838 8.42143 5.6058 8 6.66666 8C7.72753 8 8.74494 8.42143 9.49509 9.17157C10.2452 9.92172 10.6667 10.9391 10.6667 12C10.6667 13.0609 10.2452 14.0783 9.49509 14.8284C8.74494 15.5786 7.72753 16 6.66666 16C5.6058 16 4.58838 15.5786 3.83824 14.8284C3.08809 14.0783 2.66666 13.0609 2.66666 12ZM24 12C24 11.6464 24.1405 11.3072 24.3905 11.0572C24.6406 10.8071 24.9797 10.6667 25.3333 10.6667C25.687 10.6667 26.0261 10.8071 26.2761 11.0572C26.5262 11.3072 26.6667 11.6464 26.6667 12C26.6667 12.3536 26.5262 12.6928 26.2761 12.9428C26.0261 13.1929 25.687 13.3333 25.3333 13.3333C24.9797 13.3333 24.6406 13.1929 24.3905 12.9428C24.1405 12.6928 24 12.3536 24 12ZM25.3333 8C24.2725 8 23.255 8.42143 22.5049 9.17157C21.7548 9.92172 21.3333 10.9391 21.3333 12C21.3333 13.0609 21.7548 14.0783 22.5049 14.8284C23.255 15.5786 24.2725 16 25.3333 16C26.3942 16 27.4116 15.5786 28.1618 14.8284C28.9119 14.0783 29.3333 13.0609 29.3333 12C29.3333 10.9391 28.9119 9.92172 28.1618 9.17157C27.4116 8.42143 26.3942 8 25.3333 8ZM10.6667 19.3333C10.6667 17.4933 12.16 16 14 16H18C19.84 16 21.3333 17.4933 21.3333 19.3333V22.6667C21.3333 24.0812 20.7714 25.4377 19.7712 26.4379C18.771 27.4381 17.4145 28 16 28C14.5855 28 13.229 27.4381 12.2288 26.4379C11.2286 25.4377 10.6667 24.0812 10.6667 22.6667V19.3333ZM14 18.6667C13.8232 18.6667 13.6536 18.7369 13.5286 18.8619C13.4036 18.987 13.3333 19.1565 13.3333 19.3333V22.6667C13.3333 23.3739 13.6143 24.0522 14.1144 24.5523C14.6145 25.0524 15.2928 25.3333 16 25.3333C16.7072 25.3333 17.3855 25.0524 17.8856 24.5523C18.3857 24.0522 18.6667 23.3739 18.6667 22.6667V19.3333C18.6667 19.1565 18.5964 18.987 18.4714 18.8619C18.3464 18.7369 18.1768 18.6667 18 18.6667H14ZM8 19.3333C8 18.5627 8.144 17.8267 8.41066 17.152L5.128 18.032C4.27456 18.2608 3.54687 18.819 3.10484 19.5841C2.66281 20.3491 2.54261 21.2584 2.77066 22.112L3.288 24.0453C3.46932 24.7219 3.78216 25.3562 4.20864 25.9119C4.63513 26.4676 5.16691 26.9338 5.7736 27.284C6.3803 27.6341 7.05003 27.8613 7.74455 27.9526C8.43906 28.0439 9.14476 27.9975 9.82133 27.816L9.86666 27.8027C9.25152 27.0698 8.77282 26.2326 8.45333 25.3307C7.86406 25.3337 7.29038 25.1414 6.82192 24.7839C6.35346 24.4264 6.01661 23.9238 5.864 23.3547L5.34666 21.4213C5.30107 21.2505 5.32518 21.0686 5.4137 20.9156C5.50221 20.7626 5.64788 20.651 5.81866 20.6053L8 20.0187V19.3333ZM22.176 27.8133L22.1333 27.8053C22.7413 27.0773 23.224 26.2427 23.5467 25.3307C24.1355 25.3331 24.7085 25.1406 25.1765 24.7831C25.6444 24.4257 25.9808 23.9234 26.1333 23.3547L26.648 21.4213C26.6936 21.2505 26.6695 21.0686 26.581 20.9156C26.4924 20.7626 26.3468 20.651 26.176 20.6053L24 20.0213V19.3333C24 18.5627 23.856 17.8293 23.592 17.152L26.8667 18.032C27.7201 18.2608 28.4478 18.819 28.8898 19.5841C29.3318 20.3491 29.452 21.2584 29.224 22.112L28.7067 24.0453C28.5253 24.7219 28.2125 25.3562 27.786 25.9119C27.3595 26.4676 26.8278 26.9338 26.2211 27.284C25.6144 27.6341 24.9446 27.8613 24.2501 27.9526C23.5556 28.0439 22.8499 27.9975 22.1733 27.816" fill="#FF1F57"/>
</svg>
