<svg width="32" height="32" viewBox="0 0 32 32" fill="none" xmlns="http://www.w3.org/2000/svg">
<path d="M6.66667 9.33337H8C8.70724 9.33337 9.38552 9.05242 9.88562 8.55233C10.3857 8.05223 10.6667 7.37395 10.6667 6.66671C10.6667 6.31309 10.8071 5.97395 11.0572 5.7239C11.3072 5.47385 11.6464 5.33337 12 5.33337H20C20.3536 5.33337 20.6928 5.47385 20.9428 5.7239C21.1929 5.97395 21.3333 6.31309 21.3333 6.66671C21.3333 7.37395 21.6143 8.05223 22.1144 8.55233C22.6145 9.05242 23.2928 9.33337 24 9.33337H25.3333C26.0406 9.33337 26.7189 9.61433 27.219 10.1144C27.719 10.6145 28 11.2928 28 12V24C28 24.7073 27.719 25.3856 27.219 25.8857C26.7189 26.3858 26.0406 26.6667 25.3333 26.6667H6.66667C5.95942 26.6667 5.28115 26.3858 4.78105 25.8857C4.28095 25.3856 4 24.7073 4 24V12C4 11.2928 4.28095 10.6145 4.78105 10.1144C5.28115 9.61433 5.95942 9.33337 6.66667 9.33337Z" stroke="#FF1F57" stroke-width="2.66667" stroke-linecap="round" stroke-linejoin="round"/>
<path d="M12 17.3334C12 18.3942 12.4214 19.4117 13.1716 20.1618C13.9217 20.9119 14.9391 21.3334 16 21.3334C17.0609 21.3334 18.0783 20.9119 18.8284 20.1618C19.5786 19.4117 20 18.3942 20 17.3334C20 16.2725 19.5786 15.2551 18.8284 14.5049C18.0783 13.7548 17.0609 13.3334 16 13.3334C14.9391 13.3334 13.9217 13.7548 13.1716 14.5049C12.4214 15.2551 12 16.2725 12 17.3334Z" stroke="#FF1F57" stroke-width="2.66667" stroke-linecap="round" stroke-linejoin="round"/>
</svg>
