<svg width="32" height="32" viewBox="0 0 32 32" fill="none" xmlns="http://www.w3.org/2000/svg">
<path d="M10.6267 13.1814H21.3734M10.6267 18.8188H18.2907M16.0001 28.3334C18.6792 28.3329 21.2854 27.4599 23.4243 25.8465C25.5633 24.2332 27.1187 21.9672 27.8554 19.3913C28.592 16.8153 28.4699 14.0696 27.5074 11.5693C26.5449 9.06897 24.7943 6.95007 22.5206 5.53303C20.2468 4.116 17.5734 3.47791 14.9048 3.71525C12.2362 3.9526 9.71737 5.05248 7.72937 6.84856C5.74137 8.64463 4.39229 11.0392 3.88616 13.6701C3.38002 16.3011 3.74435 19.0253 4.92406 21.4308C5.06806 21.7241 5.11606 22.0548 5.04273 22.3721L3.95473 27.0868C3.92406 27.2191 3.92758 27.357 3.96495 27.4876C4.00233 27.6182 4.07234 27.7371 4.16838 27.8331C4.26442 27.9292 4.38333 27.9992 4.5139 28.0365C4.64448 28.0739 4.78242 28.0774 4.91473 28.0468L9.62806 26.9574C9.94629 26.8877 10.2788 26.9301 10.5694 27.0774C12.2593 27.9073 14.1174 28.337 16.0001 28.3334Z" stroke="black" stroke-width="2" stroke-linecap="round" stroke-linejoin="round"/>
</svg>
