<svg width="32" height="32" viewBox="0 0 32 32" fill="none" xmlns="http://www.w3.org/2000/svg">
<path d="M26.6667 6.66663C27.0203 6.66663 27.3594 6.8071 27.6095 7.05715C27.8595 7.3072 28 7.64634 28 7.99996C28 8.35358 27.8595 8.69272 27.6095 8.94277C27.3594 9.19282 27.0203 9.33329 26.6667 9.33329H25.3333L25.3293 9.42796L24.0853 26.856C24.0374 27.5287 23.7364 28.1584 23.2428 28.6181C22.7492 29.0777 22.0998 29.3333 21.4253 29.3333H10.5733C9.89885 29.3333 9.24942 29.0777 8.75585 28.6181C8.26227 28.1584 7.96122 27.5287 7.91333 26.856L6.66933 9.42929L6.66667 9.33329H5.33333C4.97971 9.33329 4.64057 9.19282 4.39052 8.94277C4.14048 8.69272 4 8.35358 4 7.99996C4 7.64634 4.14048 7.3072 4.39052 7.05715C4.64057 6.8071 4.97971 6.66663 5.33333 6.66663H26.6667ZM22.6627 9.33329H9.33733L10.5747 26.6666H21.4253L22.6627 9.33329ZM18.6667 2.66663C19.0203 2.66663 19.3594 2.8071 19.6095 3.05715C19.8595 3.3072 20 3.64634 20 3.99996C20 4.35358 19.8595 4.69272 19.6095 4.94277C19.3594 5.19282 19.0203 5.33329 18.6667 5.33329H13.3333C12.9797 5.33329 12.6406 5.19282 12.3905 4.94277C12.1405 4.69272 12 4.35358 12 3.99996C12 3.64634 12.1405 3.3072 12.3905 3.05715C12.6406 2.8071 12.9797 2.66663 13.3333 2.66663H18.6667Z" fill="#FF1F57"/>
</svg>
