<svg width="32" height="32" viewBox="0 0 32 32" fill="none" xmlns="http://www.w3.org/2000/svg">
<path d="M15.7146 27.8546L4.40663 16.5466C3.22832 15.3425 2.57253 13.7223 2.58164 12.0376C2.59074 10.3529 3.26402 8.73984 4.45528 7.54858C5.64654 6.35732 7.25962 5.68404 8.94429 5.67494C10.629 5.66583 12.2492 6.32162 13.4533 7.49993L15.7146 9.76126L17.976 7.49993C18.9084 6.56731 20.1063 5.94565 21.4056 5.72004C22.705 5.49444 24.0423 5.67591 25.2346 6.23963C26.4268 6.80334 27.4157 7.72175 28.0659 8.86913C28.716 10.0165 28.9957 11.3368 28.8666 12.6493" stroke="black" stroke-width="2"/>
<path d="M21.1664 16.7959L22.3957 18.0253L23.6237 16.7959C23.9464 16.4732 24.3296 16.2173 24.7512 16.0426C25.1728 15.868 25.6247 15.7781 26.0811 15.7781C26.5375 15.7781 26.9893 15.868 27.411 16.0426C27.8326 16.2173 28.2157 16.4732 28.5384 16.7959C28.8611 17.1186 29.1171 17.5017 29.2917 17.9234C29.4664 18.345 29.5563 18.7969 29.5563 19.2533C29.5563 19.7096 29.4664 20.1615 29.2917 20.5832C29.1171 21.0048 28.8611 21.3879 28.5384 21.7106L22.3957 27.8546L16.2517 21.7106C15.929 21.3879 15.6731 21.0048 15.4984 20.5832C15.3238 20.1615 15.2339 19.7096 15.2339 19.2533C15.2339 18.7969 15.3238 18.345 15.4984 17.9234C15.6731 17.5017 15.929 17.1186 16.2517 16.7959C16.5744 16.4732 16.9576 16.2173 17.3792 16.0426C17.8008 15.868 18.2527 15.7781 18.7091 15.7781C19.1654 15.7781 19.6173 15.868 20.039 16.0426C20.4606 16.2173 20.8437 16.4732 21.1664 16.7959Z" stroke="black" stroke-width="2"/>
</svg>
