<svg width="32" height="32" viewBox="0 0 32 32" fill="none" xmlns="http://www.w3.org/2000/svg">
<path fill-rule="evenodd" clip-rule="evenodd" d="M6.77778 16.088C5.90941 17.3899 5.44618 18.9199 5.44658 20.4848V21.6C5.44658 22.0244 5.27801 22.4313 4.97795 22.7314C4.67789 23.0314 4.27093 23.2 3.84658 23.2C3.42224 23.2 3.01527 23.0314 2.71521 22.7314C2.41515 22.4313 2.24658 22.0244 2.24658 21.6V20.4848C2.24658 18.288 2.89618 16.1408 4.11538 14.312L6.77778 16.088Z" fill="#FF1F57"/>
<path fill-rule="evenodd" clip-rule="evenodd" d="M9.93123 14.4C8.66403 14.4 7.48003 15.0336 6.77763 16.088L4.11523 14.312C4.75375 13.3548 5.61865 12.5699 6.63319 12.0271C7.64774 11.4842 8.78058 11.2001 9.93123 11.2H10.2464C10.6708 11.2 11.0777 11.3686 11.3778 11.6686C11.6779 11.9687 11.8464 12.3757 11.8464 12.8C11.8464 13.2244 11.6779 13.6313 11.3778 13.9314C11.0777 14.2314 10.6708 14.4 10.2464 14.4H9.93123ZM13.4688 16.088C14.3376 17.3888 14.8 18.92 14.8 20.4848V21.6C14.8 22.0244 14.9686 22.4313 15.2687 22.7314C15.5687 23.0314 15.9757 23.2 16.4 23.2C16.8244 23.2 17.2313 23.0314 17.5314 22.7314C17.8315 22.4313 18 22.0244 18 21.6V20.4848C17.9996 18.2879 17.3494 16.1402 16.1312 14.312L13.4688 16.088Z" fill="#FF1F57"/>
<path fill-rule="evenodd" clip-rule="evenodd" d="M10.3156 14.4C11.5828 14.4 12.7668 15.0336 13.4692 16.088L16.1316 14.312C15.4931 13.3548 14.6282 12.5699 13.6136 12.0271C12.5991 11.4842 11.4662 11.2001 10.3156 11.2H10.0004C9.57604 11.2 9.16908 11.3686 8.86902 11.6686C8.56896 11.9687 8.40039 12.3757 8.40039 12.8C8.40039 13.2244 8.56896 13.6313 8.86902 13.9314C9.16908 14.2314 9.57604 14.4 10.0004 14.4H10.3156Z" fill="#FF1F57"/>
<path fill-rule="evenodd" clip-rule="evenodd" d="M10.0003 9.99999C10.5307 9.99999 11.0394 9.78927 11.4145 9.4142C11.7896 9.03913 12.0003 8.53042 12.0003 7.99999C12.0003 7.46955 11.7896 6.96085 11.4145 6.58577C11.0394 6.2107 10.5307 5.99999 10.0003 5.99999C9.46986 5.99999 8.96115 6.2107 8.58608 6.58577C8.21101 6.96085 8.00029 7.46955 8.00029 7.99999C8.00029 8.53042 8.21101 9.03913 8.58608 9.4142C8.96115 9.78927 9.46986 9.99999 10.0003 9.99999ZM10.0003 13.2C11.3794 13.2 12.7021 12.6521 13.6772 11.6769C14.6524 10.7018 15.2003 9.37911 15.2003 7.99999C15.2003 6.62086 14.6524 5.29822 13.6772 4.32303C12.7021 3.34784 11.3794 2.79999 10.0003 2.79999C8.62117 2.79999 7.29853 3.34784 6.32334 4.32303C5.34815 5.29822 4.80029 6.62086 4.80029 7.99999C4.80029 9.37911 5.34815 10.7018 6.32334 11.6769C7.29853 12.6521 8.62117 13.2 10.0003 13.2ZM18.3779 21.288C17.5095 22.5899 17.0463 24.1199 17.0467 25.6848V26.8C17.0467 27.2243 16.8781 27.6313 16.5781 27.9314C16.278 28.2314 15.871 28.4 15.4467 28.4C15.0223 28.4 14.6154 28.2314 14.3153 27.9314C14.0153 27.6313 13.8467 27.2243 13.8467 26.8V25.6848C13.8467 23.488 14.4963 21.3408 15.7155 19.512L18.3779 21.288ZM21.5315 19.6C20.2643 19.6 19.0803 20.2336 18.3779 21.288L15.7155 19.512C16.354 18.5548 17.2189 17.7699 18.2335 17.227C19.248 16.6842 20.3808 16.4001 21.5315 16.4H21.8467C22.271 16.4 22.678 16.5686 22.9781 16.8686C23.2781 17.1687 23.4467 17.5756 23.4467 18C23.4467 18.4243 23.2781 18.8313 22.9781 19.1314C22.678 19.4314 22.271 19.6 21.8467 19.6H21.5315ZM25.0691 21.288C25.9379 22.5888 26.4003 24.12 26.4003 25.6848V26.8C26.4003 27.2243 26.5689 27.6313 26.8689 27.9314C27.169 28.2314 27.5759 28.4 28.0003 28.4C28.4246 28.4 28.8316 28.2314 29.1317 27.9314C29.4317 27.6313 29.6003 27.2243 29.6003 26.8V25.6848C29.5999 23.4879 28.9497 21.3402 27.7315 19.512L25.0691 21.288Z" fill="#FF1F57"/>
<path fill-rule="evenodd" clip-rule="evenodd" d="M21.9152 19.6C23.1824 19.6 24.3664 20.2336 25.0688 21.288L27.7312 19.512C27.0927 18.5547 26.2278 17.7699 25.2132 17.227C24.1987 16.6842 23.0659 16.4001 21.9152 16.4H21.6C21.1757 16.4 20.7687 16.5685 20.4686 16.8686C20.1686 17.1687 20 17.5756 20 18C20 18.4243 20.1686 18.8313 20.4686 19.1313C20.7687 19.4314 21.1757 19.6 21.6 19.6H21.9152Z" fill="#FF1F57"/>
<path fill-rule="evenodd" clip-rule="evenodd" d="M21.6004 15.2C22.1308 15.2 22.6395 14.9893 23.0146 14.6142C23.3897 14.2391 23.6004 13.7304 23.6004 13.2C23.6004 12.6696 23.3897 12.1609 23.0146 11.7858C22.6395 11.4107 22.1308 11.2 21.6004 11.2C21.07 11.2 20.5613 11.4107 20.1862 11.7858C19.8111 12.1609 19.6004 12.6696 19.6004 13.2C19.6004 13.7304 19.8111 14.2391 20.1862 14.6142C20.5613 14.9893 21.07 15.2 21.6004 15.2ZM21.6004 18.4C22.9795 18.4 24.3022 17.8521 25.2773 16.877C26.2525 15.9018 26.8004 14.5791 26.8004 13.2C26.8004 11.8209 26.2525 10.4982 25.2773 9.52304C24.3022 8.54786 22.9795 8 21.6004 8C20.2213 8 18.8986 8.54786 17.9234 9.52304C16.9482 10.4982 16.4004 11.8209 16.4004 13.2C16.4004 14.5791 16.9482 15.9018 17.9234 16.877C18.8986 17.8521 20.2213 18.4 21.6004 18.4Z" fill="#FF1F57"/>
</svg>
