<svg width="27" height="28" viewBox="0 0 27 28" fill="none" xmlns="http://www.w3.org/2000/svg">
<path d="M16.7161 25.3034V18.5679C16.7161 18.2702 16.5978 17.9847 16.3873 17.7742C16.1767 17.5636 15.8912 17.4454 15.5935 17.4454H11.1032C10.8055 17.4454 10.5199 17.5636 10.3094 17.7742C10.0989 17.9847 9.9806 18.2702 9.9806 18.5679V25.3034C9.9806 25.6011 9.86233 25.8867 9.65181 26.0972C9.44129 26.3077 9.15575 26.426 8.85803 26.426H2.12258C1.82485 26.426 1.53932 26.3077 1.32879 26.0972C1.11827 25.8867 1 25.6011 1 25.3034V12.3236C1.00251 12.1683 1.03609 12.015 1.09874 11.8728C1.1614 11.7306 1.25187 11.6024 1.36484 11.4957L12.5906 1.29432C12.7975 1.105 13.0679 1 13.3483 1C13.6288 1 13.8991 1.105 14.1061 1.29432L25.3318 11.4957C25.4448 11.6024 25.5353 11.7306 25.5979 11.8728C25.6606 12.015 25.6941 12.1683 25.6967 12.3236V25.3034C25.6967 25.6011 25.5784 25.8867 25.3679 26.0972C25.1573 26.3077 24.8718 26.426 24.5741 26.426H17.8386C17.5409 26.426 17.2554 26.3077 17.0448 26.0972C16.8343 25.8867 16.7161 25.6011 16.7161 25.3034Z" stroke="#FF1F57" stroke-width="2" stroke-linecap="round" stroke-linejoin="round"/>
</svg>
