<svg width="32" height="32" viewBox="0 0 32 32" fill="none" xmlns="http://www.w3.org/2000/svg">
<path d="M5.39317 24.6774C3.57584 22.8601 2.6665 21.9507 2.6665 20.8214C2.6665 19.6907 3.57584 18.7814 5.39317 16.9641L16.9638 5.39341C18.7825 3.57608 19.6905 2.66675 20.8212 2.66675C21.9518 2.66675 22.8598 3.57608 24.6772 5.39341L26.6065 7.32275C28.4238 9.14008 29.3332 10.0494 29.3332 11.1787C29.3332 12.3081 28.4238 13.2187 26.6065 15.0361L15.0358 26.6067C13.2172 28.4241 12.3065 29.3334 11.1785 29.3334C10.0505 29.3334 9.13984 28.4241 7.3225 26.6067L5.39317 24.6774Z" stroke="#FF1F57" stroke-width="1.5"/>
<path opacity="0.5" d="M11.2854 11.2854L13.1734 13.1734M16.9427 5.62939L18.8281 7.51473M5.62939 16.9427L7.51473 18.8281M8.45739 14.1147L11.2867 16.9427M14.1147 8.45739L16.9427 11.2854" stroke="#FF1F57" stroke-width="1.5" stroke-linecap="round"/>
</svg>
