<svg width="32" height="32" viewBox="0 0 32 32" fill="none" xmlns="http://www.w3.org/2000/svg">
<path d="M18.6665 25.3333C23.6945 25.3333 26.2092 25.3333 27.7705 23.7707C29.3318 22.208 29.3332 19.6947 29.3332 14.6667C29.3332 9.63867 29.3332 7.124 27.7705 5.56267C26.2078 4.00133 23.6945 4 18.6665 4H13.3332C8.30517 4 5.7905 4 4.22917 5.56267C2.66784 7.12533 2.6665 9.63867 2.6665 14.6667C2.6665 19.6947 2.6665 22.2093 4.22917 23.7707C5.09984 24.6427 6.2665 25.028 7.99984 25.1973" stroke="#FF1F57" stroke-width="1.5" stroke-linecap="round" stroke-linejoin="round"/>
<path d="M18.6665 25.3333C17.0185 25.3333 15.2025 25.9999 13.5452 26.8599C10.8812 28.2426 9.54917 28.9346 8.89317 28.4933C8.23717 28.0519 8.36117 26.6866 8.6105 23.9546L8.6665 23.3333" stroke="#FF1F57" stroke-width="1.5" stroke-linecap="round"/>
<path d="M7.33301 18L8.66634 15.3333M8.66634 15.3333L10.141 12.3853C10.2519 12.1642 10.4221 11.9782 10.6326 11.8482C10.8431 11.7183 11.0856 11.6494 11.333 11.6494C11.5804 11.6494 11.8229 11.7183 12.0334 11.8482C12.244 11.9782 12.4142 12.1642 12.525 12.3853L13.9997 15.3333M8.66634 15.3333H13.9997M13.9997 15.3333L15.333 18M16.6663 10H19.309V12C19.309 12.6667 18.6477 14 17.3263 14M22.6117 10V12.6667M22.6117 12.6667V18M22.6117 12.6667H24.6663" stroke="#FF1F57" stroke-width="1.5" stroke-linecap="round" stroke-linejoin="round"/>
</svg>
