<svg width="24" height="24" viewBox="0 0 24 24" fill="none" xmlns="http://www.w3.org/2000/svg">
<path fill-rule="evenodd" clip-rule="evenodd" d="M3.05577 0.986242C4.55349 -0.518054 7.01973 -0.250761 8.27378 1.4425L9.82688 3.53609C10.8483 4.91357 10.7573 6.83808 9.54505 8.05519L9.25216 8.35108C9.21894 8.47529 9.21557 8.60571 9.24231 8.7315C9.31984 9.23874 9.7395 10.3129 11.4969 12.0783C13.2543 13.8436 14.3249 14.2663 14.8344 14.3459C14.9628 14.372 15.0954 14.3681 15.2221 14.3347L15.7242 13.8299C16.8023 12.7483 18.4563 12.5457 19.7903 13.278L22.1409 14.5709C24.1555 15.6749 24.6637 18.4398 23.0147 20.097L21.2659 21.8525C20.7146 22.4057 19.9737 22.8669 19.0704 22.9527C16.8429 23.1628 11.6532 22.8943 6.19765 17.4154C1.1064 12.3008 0.129253 7.84012 0.00495589 5.6421C-0.0565773 4.53066 0.462763 3.59079 1.12486 2.92691L3.05577 0.986242ZM6.79698 2.56016C6.17304 1.7185 5.01129 1.65137 4.35658 2.30903L2.42444 4.24845C2.01832 4.65623 1.82388 5.10627 1.84849 5.53643C1.94694 7.28315 2.73457 11.3075 7.49969 16.0939C12.4986 21.114 17.1149 21.2644 18.8993 21.0953C19.2636 21.0618 19.6254 20.8703 19.9638 20.5309L21.7114 18.7742C22.4227 18.0606 22.2664 16.7602 21.2597 16.2082L18.9092 14.9165C18.2594 14.561 17.4988 14.6778 17.0263 15.1527L16.4663 15.7159L15.8141 15.0545C16.4663 15.7159 16.4638 15.7172 16.4638 15.7172L16.4626 15.7196L16.4589 15.7234L16.4503 15.7308L16.4318 15.7482C16.3799 15.797 16.3239 15.841 16.2645 15.88C16.166 15.9459 16.0356 16.0193 15.8719 16.0802C15.5396 16.2057 15.099 16.2729 14.5551 16.1883C13.4881 16.023 12.0741 15.2882 10.1948 13.401C8.31685 11.5138 7.58338 10.0941 7.41847 9.01745C7.33355 8.46794 7.40124 8.02287 7.52677 7.6872C7.59585 7.49832 7.69477 7.32198 7.81967 7.16505L7.85905 7.12153L7.87628 7.10289L7.88366 7.09543L7.88735 7.0917L7.88981 7.08921L8.24424 6.73365C8.77097 6.20279 8.84481 5.32384 8.34885 4.65374L6.79698 2.56016Z" fill="#FF1F57"/>
</svg>
