<svg width="32" height="32" viewBox="0 0 32 32" fill="none" xmlns="http://www.w3.org/2000/svg">
<path d="M16.0002 22.6666C16.3779 22.6666 16.6948 22.5386 16.9508 22.2826C17.2068 22.0266 17.3344 21.7102 17.3335 21.3333V16C17.3335 15.6222 17.2055 15.3057 16.9495 15.0506C16.6935 14.7955 16.3771 14.6675 16.0002 14.6666C15.6233 14.6658 15.3068 14.7937 15.0508 15.0506C14.7948 15.3075 14.6668 15.624 14.6668 16V21.3333C14.6668 21.7111 14.7948 22.028 15.0508 22.284C15.3068 22.54 15.6233 22.6675 16.0002 22.6666ZM16.0002 12C16.3779 12 16.6948 11.872 16.9508 11.616C17.2068 11.36 17.3344 11.0435 17.3335 10.6666C17.3326 10.2897 17.2046 9.97331 16.9495 9.71731C16.6944 9.46131 16.3779 9.3333 16.0002 9.3333C15.6224 9.3333 15.3059 9.46131 15.0508 9.71731C14.7957 9.97331 14.6677 10.2897 14.6668 10.6666C14.6659 11.0435 14.7939 11.3604 15.0508 11.6173C15.3077 11.8742 15.6242 12.0017 16.0002 12ZM16.0002 29.2C15.8446 29.2 15.7002 29.1889 15.5668 29.1666C15.4335 29.1444 15.3002 29.1111 15.1668 29.0666C12.1668 28.0666 9.77794 26.2164 8.00016 23.516C6.22238 20.8155 5.3335 17.9102 5.3335 14.8V8.49997C5.3335 7.94442 5.49483 7.44442 5.8175 6.99997C6.14016 6.55553 6.55661 6.2333 7.06683 6.0333L15.0668 3.0333C15.3779 2.92219 15.6891 2.86664 16.0002 2.86664C16.3113 2.86664 16.6224 2.92219 16.9335 3.0333L24.9335 6.0333C25.4446 6.2333 25.8615 6.55553 26.1842 6.99997C26.5068 7.44442 26.6677 7.94442 26.6668 8.49997V14.8C26.6668 17.9111 25.7779 20.8169 24.0002 23.5173C22.2224 26.2178 19.8335 28.0675 16.8335 29.0666C16.7002 29.1111 16.5668 29.1444 16.4335 29.1666C16.3002 29.1889 16.1557 29.2 16.0002 29.2ZM16.0002 26.5333C18.3113 25.8 20.2224 24.3333 21.7335 22.1333C23.2446 19.9333 24.0002 17.4889 24.0002 14.8V8.49997L16.0002 5.49997L8.00016 8.49997V14.8C8.00016 17.4889 8.75572 19.9333 10.2668 22.1333C11.7779 24.3333 13.6891 25.8 16.0002 26.5333Z" fill="#FF1F57"/>
</svg>
