<svg width="32" height="32" viewBox="0 0 32 32" fill="none" xmlns="http://www.w3.org/2000/svg">
<path d="M13.1333 14.505V13.1976C13.1333 12.5914 13.3741 12.01 13.8028 11.5813C14.2314 11.1527 14.8128 10.9119 15.419 10.9119H16.5847C17.1909 10.9119 17.7723 11.1527 18.201 11.5813C18.6296 12.01 18.8704 12.5914 18.8704 13.1976V14.505M12.0499 14.505H19.947C19.947 14.505 22.2327 14.505 22.2327 16.7907V22.4044C22.2327 22.4044 22.2327 24.6902 19.947 24.6902H12.0499C12.0499 24.6902 9.76416 24.6902 9.76416 22.4044V16.7907C9.76416 16.7907 9.76416 14.505 12.0499 14.505Z" stroke="#FF1F57" stroke-width="1.5" stroke-linecap="round" stroke-linejoin="round"/>
<path d="M30.8569 15.8628C30.8591 15.5456 30.7951 15.2313 30.6692 14.9401C30.5433 14.6489 30.3581 14.3871 30.1255 14.1714L15.9998 1.14282L1.87406 14.1714C1.64143 14.3871 1.45626 14.6489 1.33033 14.9401C1.20441 15.2313 1.14048 15.5456 1.14263 15.8628V28.5714C1.14263 29.1776 1.38345 29.759 1.8121 30.1876C2.24076 30.6163 2.82214 30.8571 3.42834 30.8571H28.5712C29.1774 30.8571 29.7588 30.6163 30.1874 30.1876C30.6161 29.759 30.8569 29.1776 30.8569 28.5714V15.8628Z" stroke="#FF1F57" stroke-width="1.5" stroke-linecap="round" stroke-linejoin="round"/>
</svg>
