<svg width="32" height="32" viewBox="0 0 32 32" fill="none" xmlns="http://www.w3.org/2000/svg">
<path d="M12.2441 8.15588C10.5188 7.80939 8.72736 8.04145 7.14727 8.81612C5.56718 9.59079 4.28661 10.8648 3.50388 12.441C2.72115 14.0171 2.47994 15.8073 2.81762 17.5344C3.15529 19.2614 4.053 20.829 5.37172 21.9942C6.69043 23.1595 8.35657 23.8574 10.1121 23.9799C11.8676 24.1024 13.6145 23.6426 15.0823 22.6718C16.55 21.701 17.6567 20.2733 18.231 18.6099C18.8053 16.9465 18.815 15.1401 18.2588 13.4705" stroke="#FF1F57" stroke-width="1.5" stroke-linecap="round" stroke-linejoin="round"/>
<path d="M19.7508 23.8439C21.478 24.1921 23.2718 23.9605 24.8538 23.1849C26.4358 22.4092 27.7175 21.133 28.4999 19.5544C29.2823 17.9758 29.5217 16.183 29.181 14.4543C28.8402 12.7257 27.9382 11.1579 26.6152 9.99436C25.2921 8.83081 23.622 8.13657 21.864 8.01942C20.106 7.90227 18.3584 8.36875 16.8927 9.34647C15.427 10.3242 14.325 11.7584 13.7578 13.4266C13.1907 15.0947 13.1901 16.9034 13.7561 18.5719" stroke="#FF1F57" stroke-width="1.5" stroke-linecap="round" stroke-linejoin="round"/>
</svg>
