<svg width="32" height="32" viewBox="0 0 32 32" fill="none" xmlns="http://www.w3.org/2000/svg">
<path fill-rule="evenodd" clip-rule="evenodd" d="M16 11C14.6739 11 13.4021 11.5268 12.4645 12.4645C11.5268 13.4021 11 14.6739 11 16C11 17.3261 11.5268 18.5979 12.4645 19.5355C13.4021 20.4732 14.6739 21 16 21C17.3261 21 18.5979 20.4732 19.5355 19.5355C20.4732 18.5979 21 17.3261 21 16C21 14.6739 20.4732 13.4021 19.5355 12.4645C18.5979 11.5268 17.3261 11 16 11ZM13 16C13 15.2044 13.3161 14.4413 13.8787 13.8787C14.4413 13.3161 15.2044 13 16 13C16.7956 13 17.5587 13.3161 18.1213 13.8787C18.6839 14.4413 19 15.2044 19 16C19 16.7956 18.6839 17.5587 18.1213 18.1213C17.5587 18.6839 16.7956 19 16 19C15.2044 19 14.4413 18.6839 13.8787 18.1213C13.3161 17.5587 13 16.7956 13 16Z" fill="#FF1F57"/>
<path fill-rule="evenodd" clip-rule="evenodd" d="M15.9667 1.66663C15.3734 1.66663 14.8787 1.66663 14.4734 1.69329C14.059 1.70998 13.6503 1.7956 13.264 1.94663C12.819 2.13075 12.4147 2.40072 12.074 2.74114C11.7334 3.08156 11.4631 3.48575 11.2787 3.93063C11.0854 4.39729 11.0334 4.89063 11.012 5.42663C11.0096 5.6226 10.9576 5.81478 10.8609 5.98522C10.7641 6.15566 10.6258 6.29881 10.4587 6.40129C10.2865 6.49505 10.0933 6.54362 9.89717 6.54246C9.70107 6.54129 9.50847 6.49043 9.33736 6.39463C8.86269 6.14396 8.40936 5.94263 7.90803 5.87596C7.43062 5.81316 6.94552 5.84502 6.48042 5.9697C6.01532 6.09438 5.57934 6.30945 5.19736 6.60263C4.87388 6.86193 4.59586 7.1733 4.37469 7.52396C4.14803 7.86263 3.90003 8.29063 3.60403 8.80396L3.57069 8.86263C3.27336 9.37596 3.02669 9.80396 2.84803 10.1693C2.66136 10.5506 2.51469 10.9266 2.46136 11.3426C2.33416 12.3066 2.59506 13.2817 3.18669 14.0533C3.49469 14.4546 3.89603 14.7466 4.34936 15.032C4.5182 15.1321 4.65888 15.2734 4.75822 15.4427C4.85756 15.612 4.91232 15.8037 4.91736 16C4.91232 16.1962 4.85756 16.3879 4.75822 16.5572C4.65888 16.7265 4.5182 16.8678 4.34936 16.968C3.89603 17.2533 3.49603 17.5453 3.18669 17.9466C2.89351 18.3286 2.67844 18.7646 2.55376 19.2297C2.42908 19.6948 2.39723 20.1799 2.46003 20.6573C2.51469 21.0733 2.66003 21.4493 2.84669 21.8306C3.02669 22.196 3.27336 22.624 3.57069 23.1373L3.60403 23.196C3.90003 23.7093 4.14803 24.1373 4.37469 24.476C4.61069 24.8266 4.86403 25.1426 5.19736 25.396C5.57924 25.6894 6.01518 25.9047 6.48028 26.0296C6.94538 26.1545 7.43053 26.1866 7.90803 26.124C8.40936 26.0573 8.86269 25.8573 9.33736 25.6053C9.5083 25.5097 9.70066 25.459 9.8965 25.4578C10.0923 25.4567 10.2853 25.5051 10.4574 25.5986C10.6258 25.6998 10.7654 25.8426 10.8627 26.0133C10.9601 26.184 11.012 26.3768 11.0134 26.5733C11.0334 27.1093 11.0854 27.6026 11.28 28.0693C11.4641 28.5143 11.7341 28.9187 12.0745 29.2593C12.415 29.6 12.8191 29.8702 13.264 30.0546C13.6507 30.2146 14.0507 30.2773 14.4734 30.3053C14.8787 30.3333 15.3734 30.3333 15.9667 30.3333H16.0334C16.6267 30.3333 17.1214 30.3333 17.5267 30.3066C17.9507 30.2773 18.3494 30.2146 18.736 30.0533C19.181 29.8692 19.5854 29.5992 19.926 29.2588C20.2667 28.9184 20.5369 28.5142 20.7214 28.0693C20.9147 27.6026 20.9667 27.1093 20.988 26.5733C20.9902 26.3771 21.0421 26.1846 21.1388 26.0139C21.2356 25.8433 21.3741 25.6999 21.5414 25.5973C21.7137 25.5037 21.907 25.4554 22.1031 25.4568C22.2992 25.4582 22.4917 25.5093 22.6627 25.6053C23.1374 25.856 23.5907 26.0573 24.092 26.1226C25.056 26.2498 26.0311 25.9889 26.8027 25.3973C27.136 25.1413 27.3894 24.8266 27.6254 24.476C27.852 24.1373 28.1 23.7093 28.396 23.196L28.4294 23.1373C28.7267 22.624 28.9734 22.196 29.152 21.8306C29.3387 21.4493 29.4854 21.072 29.5387 20.6573C29.6659 19.6933 29.405 18.7183 28.8134 17.9466C28.5054 17.5453 28.104 17.2533 27.6507 16.968C27.4818 16.8678 27.3412 16.7265 27.2418 16.5572C27.1425 16.3879 27.0877 16.1962 27.0827 16C27.0827 15.6293 27.2854 15.2613 27.6507 15.032C28.104 14.7466 28.504 14.4546 28.8134 14.0533C29.1065 13.6713 29.3216 13.2353 29.4463 12.7702C29.571 12.3051 29.6028 11.82 29.54 11.3426C29.4772 10.9328 29.3465 10.5362 29.1534 10.1693C28.9256 9.72633 28.6842 9.29056 28.4294 8.86263L28.396 8.80396C28.1525 8.3694 27.8955 7.94252 27.6254 7.52396C27.4041 7.17378 27.1261 6.86286 26.8027 6.60396C26.4208 6.31055 25.9849 6.09524 25.5198 5.97033C25.0547 5.84542 24.5695 5.81335 24.092 5.87596C23.5907 5.94263 23.1374 6.14263 22.6627 6.39463C22.4917 6.49019 22.2994 6.54092 22.1036 6.54209C21.9077 6.54325 21.7148 6.49482 21.5427 6.40129C21.3751 6.29913 21.2362 6.15612 21.139 5.98566C21.0418 5.8152 20.9894 5.62285 20.9867 5.42663C20.9667 4.89063 20.9147 4.39729 20.72 3.93063C20.5359 3.48563 20.2659 3.08125 19.9255 2.74061C19.5851 2.39996 19.1809 2.12971 18.736 1.94529C18.3494 1.78529 17.9494 1.72263 17.5267 1.69463C17.1214 1.66663 16.6267 1.66663 16.0334 1.66663H15.9667ZM14.0294 3.79329C14.132 3.75063 14.288 3.71196 14.6094 3.68929C14.9387 3.66663 15.3654 3.66663 16 3.66663C16.6347 3.66663 17.0614 3.66663 17.3907 3.68929C17.712 3.71196 17.868 3.75063 17.9707 3.79329C18.38 3.96263 18.704 4.28663 18.8734 4.69596C18.9267 4.82396 18.9707 5.02529 18.988 5.50129C19.028 6.55729 19.5734 7.57463 20.5414 8.13329C21.5094 8.69196 22.6627 8.65596 23.5974 8.16263C24.0187 7.93996 24.2147 7.87729 24.3534 7.85996C24.7914 7.80207 25.2346 7.92053 25.5854 8.18929C25.6734 8.25729 25.7854 8.37329 25.9654 8.63996C26.1507 8.91463 26.364 9.28396 26.6814 9.83329C26.9987 10.3826 27.2107 10.7533 27.356 11.0493C27.4987 11.3386 27.5427 11.4933 27.556 11.604C27.6139 12.042 27.4955 12.4852 27.2267 12.836C27.1414 12.9466 26.9894 13.0853 26.5867 13.3386C25.6907 13.9013 25.0827 14.8826 25.0827 16C25.0827 17.1173 25.6907 18.0986 26.5867 18.6613C26.9894 18.9146 27.1414 19.0533 27.2267 19.164C27.496 19.5146 27.6134 19.9573 27.556 20.396C27.5427 20.5066 27.4974 20.6626 27.356 20.9506C27.2107 21.248 26.9987 21.6173 26.6814 22.1666C26.364 22.716 26.1494 23.0853 25.9654 23.36C25.7854 23.6266 25.6734 23.7426 25.5854 23.8106C25.2346 24.0794 24.7914 24.1978 24.3534 24.14C24.2147 24.1226 24.02 24.06 23.5974 23.8373C22.664 23.344 21.5094 23.3066 20.5414 23.8653C19.5734 24.424 19.028 25.4426 18.988 26.4986C18.9707 26.9746 18.9267 27.176 18.8734 27.304C18.7896 27.5064 18.6668 27.6903 18.5119 27.8451C18.357 28 18.1731 28.1229 17.9707 28.2066C17.868 28.2493 17.712 28.288 17.3907 28.3106C17.0614 28.3333 16.6347 28.3333 16 28.3333C15.3654 28.3333 14.9387 28.3333 14.6094 28.3106C14.288 28.288 14.132 28.2493 14.0294 28.2066C13.827 28.1229 13.6431 28 13.4882 27.8451C13.3333 27.6903 13.2105 27.5064 13.1267 27.304C13.0734 27.176 13.0294 26.9746 13.012 26.4986C12.972 25.4426 12.4267 24.4253 11.4587 23.8666C10.4907 23.308 9.33736 23.344 8.40269 23.8373C7.98136 24.06 7.78536 24.1226 7.64669 24.14C7.20861 24.1978 6.76546 24.0794 6.41469 23.8106C6.32669 23.7426 6.21469 23.6266 6.03469 23.36C5.78387 22.9696 5.54509 22.5716 5.31869 22.1666C5.00136 21.6173 4.78936 21.2466 4.64403 20.9506C4.50136 20.6613 4.45736 20.5066 4.44403 20.396C4.38614 19.9579 4.5046 19.5147 4.77336 19.164C4.85869 19.0533 5.01069 18.9146 5.41336 18.6613C6.30936 18.0986 6.91736 17.1173 6.91736 16C6.91736 14.8826 6.30936 13.9013 5.41336 13.3386C5.01069 13.0853 4.85869 12.9466 4.77336 12.836C4.5046 12.4852 4.38614 12.042 4.44403 11.604C4.45736 11.4933 4.50269 11.3373 4.64403 11.0493C4.78936 10.752 5.00136 10.3826 5.31869 9.83329C5.63603 9.28396 5.85069 8.91463 6.03469 8.63996C6.21469 8.37329 6.32669 8.25729 6.41469 8.18929C6.76546 7.92053 7.20861 7.80207 7.64669 7.85996C7.78536 7.87729 7.98003 7.93996 8.40269 8.16263C9.33603 8.65596 10.4907 8.69329 11.4587 8.13329C12.4267 7.57463 12.972 6.55729 13.012 5.50129C13.0294 5.02529 13.0734 4.82396 13.1267 4.69596C13.296 4.28663 13.62 3.96263 14.0294 3.79329Z" fill="#FF1F57"/>
</svg>
