<svg width="24" height="16" viewBox="0 0 24 16" fill="none" xmlns="http://www.w3.org/2000/svg">
<path fill-rule="evenodd" clip-rule="evenodd" d="M3.05577 0.682973C4.55349 -0.358752 7.01973 -0.173652 8.27378 0.998934L9.82688 2.44874C10.8483 3.40265 10.7573 4.73537 9.54505 5.57822L9.25216 5.78312C9.21894 5.86914 9.21557 5.95946 9.24231 6.04657C9.31984 6.39783 9.7395 7.14167 11.4969 8.36419C13.2543 9.58671 14.3249 9.87943 14.8344 9.93452C14.9628 9.95259 15.0954 9.94994 15.2221 9.92678L15.7242 9.57724C16.8023 8.82823 18.4563 8.6879 19.7903 9.19499L22.1409 10.0904C24.1555 10.8549 24.6637 12.7696 23.0147 13.9172L21.2659 15.1328C20.7146 15.5159 19.9737 15.8353 19.0704 15.8947C16.8429 16.0402 11.6532 15.8543 6.19765 12.0602C1.1064 8.5183 0.129253 5.42928 0.00495589 3.90716C-0.0565773 3.13748 0.462763 2.48662 1.12486 2.02688L3.05577 0.682973ZM6.79698 1.77291C6.17304 1.19006 5.01129 1.14357 4.35658 1.599L2.42444 2.94205C2.01832 3.22444 1.82388 3.53609 1.84849 3.83398C1.94694 5.04358 2.73457 7.83041 7.49969 11.145C12.4986 14.6214 17.1149 14.7256 18.8993 14.6085C19.2636 14.5853 19.6254 14.4527 19.9638 14.2177L21.7114 13.0012C22.4227 12.507 22.2664 11.6065 21.2597 11.2242L18.9092 10.3297C18.2594 10.0835 17.4988 10.1644 17.0263 10.4933L16.4663 10.8833L15.8141 10.4253C16.4663 10.8833 16.4638 10.8841 16.4638 10.8841L16.4626 10.8859L16.4589 10.8884L16.4503 10.8936L16.4318 10.9057C16.3799 10.9394 16.3239 10.9699 16.2645 10.9969C16.166 11.0425 16.0356 11.0933 15.8719 11.1355C15.5396 11.2225 15.099 11.269 14.5551 11.2104C13.4881 11.0959 12.0741 10.5871 10.1948 9.28022C8.31685 7.97333 7.58338 6.99015 7.41847 6.24458C7.33355 5.86405 7.40124 5.55584 7.52677 5.32338C7.59585 5.19258 7.69477 5.07047 7.81967 4.96179L7.85905 4.93166L7.87628 4.91875L7.88366 4.91358L7.88735 4.911L7.88981 4.90928L8.24424 4.66305C8.77097 4.29543 8.84481 3.68676 8.34885 3.22272L6.79698 1.77291Z" fill="#FF1F57"/>
</svg>
